<svg xmlns="http://www.w3.org/2000/svg" viewBox="0 0 140 140">
  <defs>
    <style>
      .cls-1 {
        fill: #00bc77;
      }

      .cls-2 {
        fill: #055834;
      }
    </style>
  </defs>
  <path class="cls-2" d="M70.32,25.82h29.65c3.44,0,6.91,.27,10.39,.81,3.48,.54,6.61,1.62,9.38,3.25,2.77,1.62,5.01,3.89,6.74,6.8,1.72,2.91,2.58,6.78,2.58,11.61s-1.25,9.13-3.76,12.42c-2.51,3.29-5.82,5.64-9.94,7.05v.25c2.62,.42,5,1.23,7.14,2.43,2.13,1.21,3.97,2.75,5.5,4.62,1.53,1.87,2.72,4.06,3.54,6.56,.82,2.49,1.23,5.16,1.23,7.99,0,4.66-.9,8.55-2.69,11.66-1.8,3.12-4.12,5.64-6.97,7.55-2.84,1.91-6.05,3.29-9.6,4.12-3.55,.83-7.09,1.25-10.61,1.25h-32.57V25.82Zm17.52,35.32h12.69c1.35,0,2.68-.16,3.99-.5,1.31-.33,2.49-.87,3.53-1.63,1.05-.75,1.89-1.75,2.53-2.99,.63-1.25,.95-2.75,.95-4.49s-.36-3.35-1.07-4.56c-.71-1.2-1.63-2.14-2.75-2.81s-2.4-1.14-3.82-1.44c-1.42-.29-2.81-.44-4.15-.44h-11.91v18.85Zm0,36.57h15.73c1.35,0,2.71-.17,4.1-.5,1.39-.34,2.64-.91,3.76-1.75s2.04-1.91,2.75-3.25c.71-1.33,1.07-2.96,1.07-4.87,0-2.08-.47-3.76-1.41-5.05-.93-1.29-2.11-2.26-3.53-2.94-1.43-.67-2.96-1.12-4.61-1.37-1.65-.25-3.18-.38-4.61-.38h-13.25v20.09Z"/>
  <path class="cls-1" d="M41.11,25.82h14.49l34.6,88.36h-19.77l-6.85-18.72h-30.89l-6.63,18.72H6.74L41.11,25.82Zm6.74,25.71l-9.66,27.46h19.43l-9.78-27.46Z"/>
</svg>